<svg width="920" height="24" viewBox="0 0 920 24" fill="none" xmlns="http://www.w3.org/2000/svg">
<g clip-path="url(#clip0_283_132)">
<path fill-rule="evenodd" clip-rule="evenodd" d="M431.193 6.46313C431.077 6.18285 430.803 6.00006 430.5 6H427.647C426.836 4.61972 425.36 3.76579 423.759 3.75C422.575 3.73446 421.434 4.19754 420.595 5.03438C419.732 5.88138 419.247 7.04071 419.25 8.25V8.82094C415.476 7.82531 412.388 4.755 412.356 4.72219C412.15 4.51493 411.843 4.44566 411.569 4.54461C411.294 4.64356 411.102 4.89277 411.076 5.18344C410.672 9.66375 411.973 12.6619 413.138 14.3878C413.707 15.241 414.398 16.0055 415.19 16.6566C413.762 18.3 411.514 19.1634 411.489 19.1728C411.275 19.2531 411.109 19.4269 411.039 19.6448C410.968 19.8627 411.001 20.1008 411.128 20.2913C411.199 20.3962 411.48 20.7647 412.167 21.1087C413.017 21.5344 414.139 21.75 415.5 21.75C422.125 21.75 427.661 16.6481 428.227 10.0837L431.031 7.28062C431.245 7.06601 431.309 6.74335 431.193 6.46313ZM426.974 9.22031C426.845 9.34921 426.768 9.52049 426.757 9.70219C426.375 15.6169 421.432 20.25 415.5 20.25C414.51 20.25 413.812 20.1187 413.323 19.9613C414.402 19.3753 415.907 18.3675 416.874 16.9163C416.989 16.7438 417.027 16.5315 416.98 16.3298C416.933 16.128 416.804 15.9548 416.625 15.8512C416.581 15.8259 412.508 13.3819 412.5 6.85125C414 8.07 416.742 9.96094 419.875 10.4878C420.093 10.5245 420.315 10.4636 420.484 10.3215C420.652 10.1794 420.749 9.9704 420.75 9.75V8.25C420.748 7.44176 421.073 6.66702 421.65 6.10125C422.203 5.54686 422.957 5.23983 423.741 5.25C424.927 5.265 426.037 5.98875 426.501 7.05094C426.62 7.32382 426.89 7.50008 427.188 7.5H428.688L426.974 9.22031Z" fill="#61758A"/>
</g>
<g clip-path="url(#clip1_283_132)">
<path fill-rule="evenodd" clip-rule="evenodd" d="M468.25 2.25H451.75C450.922 2.25 450.25 2.92157 450.25 3.75V20.25C450.25 21.0784 450.922 21.75 451.75 21.75H468.25C469.078 21.75 469.75 21.0784 469.75 20.25V3.75C469.75 2.92157 469.078 2.25 468.25 2.25ZM468.25 20.25H451.75V3.75H468.25V20.25ZM457 10.5V16.5C457 16.9142 456.664 17.25 456.25 17.25C455.836 17.25 455.5 16.9142 455.5 16.5V10.5C455.5 10.0858 455.836 9.75 456.25 9.75C456.664 9.75 457 10.0858 457 10.5ZM465.25 13.125V16.5C465.25 16.9142 464.914 17.25 464.5 17.25C464.086 17.25 463.75 16.9142 463.75 16.5V13.125C463.75 12.0895 462.911 11.25 461.875 11.25C460.839 11.25 460 12.0895 460 13.125V16.5C460 16.9142 459.664 17.25 459.25 17.25C458.836 17.25 458.5 16.9142 458.5 16.5V10.5C458.502 10.1198 458.788 9.80112 459.166 9.75852C459.544 9.71592 459.894 9.96285 459.98 10.3331C461.014 9.63174 462.351 9.55891 463.455 10.1438C464.559 10.7287 465.25 11.8756 465.25 13.125ZM457.375 7.875C457.375 8.49632 456.871 9 456.25 9C455.629 9 455.125 8.49632 455.125 7.875C455.125 7.25368 455.629 6.75 456.25 6.75C456.871 6.75 457.375 7.25368 457.375 7.875Z" fill="#61758A"/>
</g>
<g clip-path="url(#clip2_283_132)">
<path fill-rule="evenodd" clip-rule="evenodd" d="M507.529 7.095C507.993 5.59994 507.81 3.97919 507.025 2.625C506.891 2.3929 506.643 2.24994 506.375 2.25C504.604 2.24629 502.935 3.08067 501.875 4.5H499.625C498.565 3.08067 496.896 2.24629 495.125 2.25C494.857 2.24994 494.609 2.3929 494.475 2.625C493.69 3.97919 493.507 5.59994 493.971 7.095C493.508 7.9038 493.259 8.81791 493.25 9.75V10.5C493.253 13.1241 495.192 15.3436 497.791 15.7003C497.278 16.357 497 17.1666 497 18V18.75H494.75C493.507 18.75 492.5 17.7426 492.5 16.5C492.5 14.4289 490.821 12.75 488.75 12.75C488.336 12.75 488 13.0858 488 13.5C488 13.9142 488.336 14.25 488.75 14.25C489.993 14.25 491 15.2574 491 16.5C491 18.5711 492.679 20.25 494.75 20.25H497V21.75C497 22.1642 497.336 22.5 497.75 22.5C498.164 22.5 498.5 22.1642 498.5 21.75V18C498.5 16.7574 499.507 15.75 500.75 15.75C501.993 15.75 503 16.7574 503 18V21.75C503 22.1642 503.336 22.5 503.75 22.5C504.164 22.5 504.5 22.1642 504.5 21.75V18C504.5 17.1666 504.222 16.357 503.709 15.7003C506.308 15.3436 508.247 13.1241 508.25 10.5V9.75C508.241 8.81791 507.992 7.9038 507.529 7.095ZM506.75 10.5C506.75 12.5711 505.071 14.25 503 14.25H498.5C496.429 14.25 494.75 12.5711 494.75 10.5V9.75C494.759 9.00002 494.984 8.26849 495.397 7.6425C495.553 7.43612 495.592 7.16356 495.5 6.92156C495.105 5.90402 495.132 4.7713 495.574 3.77344C496.817 3.90719 497.932 4.59924 498.604 5.65406C498.741 5.86876 498.978 5.99905 499.233 6H502.266C502.522 6.00001 502.76 5.8696 502.898 5.65406C503.569 4.59913 504.684 3.90706 505.928 3.77344C506.369 4.77155 506.395 5.90427 506 6.92156C505.908 7.16109 505.943 7.43094 506.094 7.63875C506.511 8.26474 506.739 8.99778 506.75 9.75V10.5Z" fill="#61758A"/>
</g>
<defs>
<clipPath id="clip0_283_132">
<rect width="24" height="24" fill="white" transform="translate(408)"/>
</clipPath>
<clipPath id="clip1_283_132">
<rect width="24" height="24" fill="white" transform="translate(448)"/>
</clipPath>
<clipPath id="clip2_283_132">
<rect width="24" height="24" fill="white" transform="translate(488)"/>
</clipPath>
</defs>
</svg>
